HIERARCHY
ROOT Hips
{
    OFFSET   0.000000   0.000000   0.000000
    CHANNELS 6 Xposition Yposition Zposition Zrotation Xrotation Yrotation
    JOINT Chest
    {
        OFFSET   0.000000   8.007230   0.000000
        CHANNELS 3 Zrotation Xrotation Yrotation
        JOINT Chest2
        {
            OFFSET   0.000000  22.077100   0.000000
            CHANNELS 3 Zrotation Xrotation Yrotation
            JOINT Neck
            {
                OFFSET   0.000000  23.254800   0.000000
                CHANNELS 3 Zrotation Xrotation Yrotation
                JOINT Head
                {
                    OFFSET   0.000010  14.370000   1.956600
                    CHANNELS 3 Zrotation Xrotation Yrotation
                    End Site
                    {
                        OFFSET   0.000000  19.566000   0.000000
                    }
                }
            }
            JOINT LeftCollar
            {
                OFFSET   3.911900  19.017000  -0.467062
                CHANNELS 3 Zrotation Xrotation Yrotation
                JOINT LeftShoulder
                {
                    OFFSET  10.383700   0.000000   0.000000
                    CHANNELS 3 Zrotation Xrotation Yrotation
                    JOINT LeftElbow
                    {
                        OFFSET  26.662100   0.001193   0.000835
                        CHANNELS 3 Zrotation Xrotation Yrotation
                        JOINT LeftWrist
                        {
                            OFFSET  28.869000  -0.000058  -0.000075
                            CHANNELS 3 Zrotation Xrotation Yrotation
                            JOINT LeftFinger0
                            {
                                OFFSET   2.044660  -2.323460   3.252850
                                CHANNELS 3 Zrotation Xrotation Yrotation
                                JOINT LeftFinger01
                                {
                                    OFFSET   3.088130   0.000000   0.000000
                                    CHANNELS 3 Zrotation Xrotation Yrotation
                                    JOINT LeftFinger02
                                    {
                                        OFFSET   2.639450   0.000000   0.000000
                                        CHANNELS 3 Zrotation Xrotation Yrotation
                                        End Site
                                        {
                                            OFFSET   2.582190   0.000000   0.000000
                                        }
                                    }
                                }
                            }
                            JOINT LeftFinger1
                            {
                                OFFSET   8.364480   0.000000   3.252850
                                CHANNELS 3 Zrotation Xrotation Yrotation
                                JOINT LeftFinger11
                                {
                                    OFFSET   4.646920   0.000000   0.000000
                                    CHANNELS 3 Zrotation Xrotation Yrotation
                                    JOINT LeftFinger12
                                    {
                                        OFFSET   2.323460   0.000000   0.000000
                                        CHANNELS 3 Zrotation Xrotation Yrotation
                                        End Site
                                        {
                                            OFFSET   2.273050   0.000000   0.000000
                                        }
                                    }
                                }
                            }
                            JOINT LeftFinger2
                            {
                                OFFSET   8.364490   0.000016   1.078090
                                CHANNELS 3 Zrotation Xrotation Yrotation
                                JOINT LeftFinger21
                                {
                                    OFFSET   5.111620   0.000000   0.000000
                                    CHANNELS 3 Zrotation Xrotation Yrotation
                                    JOINT LeftFinger22
                                    {
                                        OFFSET   2.788150   0.000012   0.000000
                                        CHANNELS 3 Zrotation Xrotation Yrotation
                                        End Site
                                        {
                                            OFFSET   2.727660   0.000000   0.000000
                                        }
                                    }
                                }
                            }
                            JOINT LeftFinger3
                            {
                                OFFSET   7.899780   0.000014  -1.078090
                                CHANNELS 3 Zrotation Xrotation Yrotation
                                JOINT LeftFinger31
                                {
                                    OFFSET   4.646930   0.000000   0.000000
                                    CHANNELS 3 Zrotation Xrotation Yrotation
                                    JOINT LeftFinger32
                                    {
                                        OFFSET   2.323470   0.000000   0.000000
                                        CHANNELS 3 Zrotation Xrotation Yrotation
                                        End Site
                                        {
                                            OFFSET   2.273050   0.000000   0.000000
                                        }
                                    }
                                }
                            }
                            JOINT LeftFinger4
                            {
                                OFFSET   7.435090   0.000000  -3.252850
                                CHANNELS 3 Zrotation Xrotation Yrotation
                                JOINT LeftFinger41
                                {
                                    OFFSET   3.717550   0.000000   0.000000
                                    CHANNELS 3 Zrotation Xrotation Yrotation
                                    JOINT LeftFinger42
                                    {
                                        OFFSET   1.858770   0.000000   0.000000
                                        CHANNELS 3 Zrotation Xrotation Yrotation
                                        End Site
                                        {
                                            OFFSET   1.818440   0.000000   0.000000
                                        }
                                    }
                                }
                            }
                        }
                    }
                }
            }
            JOINT RightCollar
            {
                OFFSET  -3.911900  19.017000  -0.467063
                CHANNELS 3 Zrotation Xrotation Yrotation
                JOINT RightShoulder
                {
                    OFFSET -10.383700   0.000023   0.000000
                    CHANNELS 3 Zrotation Xrotation Yrotation
                    JOINT RightElbow
                    {
                        OFFSET -26.662100   0.001246   0.001011
                        CHANNELS 3 Zrotation Xrotation Yrotation
                        JOINT RightWrist
                        {
                            OFFSET -28.869000  -0.000026  -0.000078
                            CHANNELS 3 Zrotation Xrotation Yrotation
                            JOINT RightFinger0
                            {
                                OFFSET  -2.044660  -2.323490   3.252850
                                CHANNELS 3 Zrotation Xrotation Yrotation
                                JOINT RightFinger01
                                {
                                    OFFSET  -3.088130   0.000000   0.000000
                                    CHANNELS 3 Zrotation Xrotation Yrotation
                                    JOINT RightFinger02
                                    {
                                        OFFSET  -2.639460   0.000000   0.000000
                                        CHANNELS 3 Zrotation Xrotation Yrotation
                                        End Site
                                        {
                                            OFFSET  -2.582190   0.000000   0.000000
                                        }
                                    }
                                }
                            }
                            JOINT RightFinger1
                            {
                                OFFSET  -8.364480   0.000000   3.252850
                                CHANNELS 3 Zrotation Xrotation Yrotation
                                JOINT RightFinger11
                                {
                                    OFFSET  -4.646920   0.000000   0.000000
                                    CHANNELS 3 Zrotation Xrotation Yrotation
                                    JOINT RightFinger12
                                    {
                                        OFFSET  -2.323470   0.000000   0.000000
                                        CHANNELS 3 Zrotation Xrotation Yrotation
                                        End Site
                                        {
                                            OFFSET  -2.273050   0.000000   0.000000
                                        }
                                    }
                                }
                            }
                            JOINT RightFinger2
                            {
                                OFFSET  -8.364480   0.000000   1.078090
                                CHANNELS 3 Zrotation Xrotation Yrotation
                                JOINT RightFinger21
                                {
                                    OFFSET  -5.111620   0.000000   0.000000
                                    CHANNELS 3 Zrotation Xrotation Yrotation
                                    JOINT RightFinger22
                                    {
                                        OFFSET  -2.788160   0.000000   0.000000
                                        CHANNELS 3 Zrotation Xrotation Yrotation
                                        End Site
                                        {
                                            OFFSET  -2.727660   0.000000   0.000000
                                        }
                                    }
                                }
                            }
                            JOINT RightFinger3
                            {
                                OFFSET  -7.899780   0.000000  -1.078090
                                CHANNELS 3 Zrotation Xrotation Yrotation
                                JOINT RightFinger31
                                {
                                    OFFSET  -4.646930   0.000000   0.000000
                                    CHANNELS 3 Zrotation Xrotation Yrotation
                                    JOINT RightFinger32
                                    {
                                        OFFSET  -2.323470   0.000000   0.000000
                                        CHANNELS 3 Zrotation Xrotation Yrotation
                                        End Site
                                        {
                                            OFFSET  -2.273050   0.000000   0.000000
                                        }
                                    }
                                }
                            }
                            JOINT RightFinger4
                            {
                                OFFSET  -7.435090   0.000000  -3.252850
                                CHANNELS 3 Zrotation Xrotation Yrotation
                                JOINT RightFinger41
                                {
                                    OFFSET  -3.717550   0.000000   0.000000
                                    CHANNELS 3 Zrotation Xrotation Yrotation
                                    JOINT RightFinger42
                                    {
                                        OFFSET  -1.858760   0.000000   0.000000
                                        CHANNELS 3 Zrotation Xrotation Yrotation
                                        End Site
                                        {
                                            OFFSET  -1.818440   0.000000   0.000000
                                        }
                                    }
                                }
                            }
                        }
                    }
                }
            }
        }
    }
    JOINT LeftHip
    {
        OFFSET   9.783010   0.000000   0.000000
        CHANNELS 3 Zrotation Xrotation Yrotation
        JOINT LeftKnee
        {
            OFFSET   0.000073 -41.789100   0.001749
            CHANNELS 3 Zrotation Xrotation Yrotation
            JOINT LeftAnkle
            {
                OFFSET   0.000111 -41.133200  -0.000179
                CHANNELS 3 Zrotation Xrotation Yrotation
                JOINT LeftToe
                {
                    OFFSET   0.000000  -6.358960  14.674500
                    CHANNELS 3 Zrotation Xrotation Yrotation
                    End Site
                    {
                        OFFSET   0.000000   0.000000   3.913200
                    }
                }
            }
        }
    }
    JOINT RightHip
    {
        OFFSET  -9.783010   0.000000   0.000000
        CHANNELS 3 Zrotation Xrotation Yrotation
        JOINT RightKnee
        {
            OFFSET   0.000424 -41.789200   0.005205
            CHANNELS 3 Zrotation Xrotation Yrotation
            JOINT RightAnkle
            {
                OFFSET   0.000000 -41.133200  -0.000155
                CHANNELS 3 Zrotation Xrotation Yrotation
                JOINT RightToe
                {
                    OFFSET   0.000000  -6.358960  14.674500
                    CHANNELS 3 Zrotation Xrotation Yrotation
                    End Site
                    {
                        OFFSET   0.000000   0.000000   3.913200
                    }
                }
            }
        }
    }
}
MOTION
Frames: 4
Frame Time:   0.016667
 -0.773138  89.512500  -1.266130  -2.321370  -5.859490  -1.903530   0.534627   2.451990   0.284588   1.058510   4.906490   0.546981   0.299556   0.104980   0.006460   0.492264   0.216739  -0.325199  -0.887188  -0.124301   1.488240 -77.599400  12.022000   0.852156  -1.074230  -2.451650 -14.474200  13.607000  -4.930950   2.476340  48.943300  44.768300 -79.216700 -30.415300  -0.001322  -0.000689 -10.210800   0.000830   0.006153 -29.400300   3.910370  -6.900740 -24.247800   0.000719   0.003165 -16.973500   0.000636  -0.008669 -28.595200  -0.954561   1.762750 -37.551900  -0.006335   0.011784 -25.009600   0.001117  -0.014568 -28.307400  -0.945732   1.767550 -34.403800   0.006019  -0.002355 -22.897900  -0.010963   0.001594 -32.190900  -1.062740   1.698800 -48.326600   0.005690  -0.001279 -32.174200   0.001602   0.000713   4.401940  -0.112011   1.291840  74.195800   2.732750  -4.145050   0.486895  -7.542250   6.027130 -12.322500  -0.857413   3.299470 -38.087900  30.203400  62.151700  30.627100   0.001578  -0.000863  10.313500   0.001801   0.000435  32.819000   8.904710  13.510800  27.715700   0.002743  -0.000153  19.401000   0.004782   0.011828  28.414800   4.905510   8.982040  42.799400  -0.002125  -0.003222  28.504400   0.004361   0.002836  28.456300   4.125800   7.573570  39.549600   0.006798  -0.001138  26.340000   0.002335  -0.000621  37.373800  -0.345329  -0.455351  56.062800   0.005025   0.002660  37.337800   0.003797  -0.002060   1.184200   8.941170   2.862870   0.729134   0.123679   1.293900  -0.115978  -4.292240   1.387340   0.000000   0.000000   0.000000   1.741420   8.729230   0.909684  -0.162570   0.366932  -4.732090   0.066944  -3.852250  -0.651644  -0.000000   0.000000  -0.000000
 -0.780621  89.512500  -1.255970  -2.315730  -5.855820  -1.903520   0.534567   2.455750   0.289064   1.058180   4.914080   0.555917   0.315468   0.104748   0.006472   0.518398   0.216619  -0.346617  -0.887219  -0.124443   1.473140 -77.600800  12.042600   0.847012  -1.082310  -2.454080 -14.490900  13.597900  -4.919270   2.458570  48.972100  44.787900 -79.232800 -30.409900  -0.001324  -0.000705 -10.210800   0.000830   0.006167 -29.387000   3.910720  -6.905900 -24.237000   0.000714   0.003167 -16.965900   0.000634  -0.008667 -28.595200  -0.955510   1.760500 -37.535400  -0.006335   0.011784 -24.998600   0.001117  -0.014568 -28.307400  -0.946672   1.765300 -34.392500   0.006020  -0.002356 -22.897900  -0.010965   0.001594 -32.190400  -1.063730   1.696690 -48.320400   0.005689  -0.001279 -32.173700   0.001603   0.000714   4.408690  -0.111889   1.281100  74.193500   2.740460  -4.139730   0.481873  -7.544620   6.046460 -12.324900  -0.878690   3.303480 -38.067800  30.182700  62.149900  30.643900   0.001570  -0.000842  10.322000   0.001787   0.000435  32.845600   8.905420  13.491500  27.736700   0.002733  -0.000192  19.415700   0.004763   0.011844  28.418600   4.893810   8.960250  42.839600  -0.002128  -0.003223  28.531100   0.004361   0.002836  28.456800   4.125880   7.566720  39.593600   0.006791  -0.001149  26.369300   0.002333  -0.000619  37.397700  -0.345264  -0.463121  56.098600   0.005029   0.002655  37.361700   0.003782  -0.002057   1.181670   8.972060   2.835170   0.730088   0.077082   1.329000  -0.121457  -4.271450   1.387150  -0.000000   0.000000   0.000000   1.738030   8.740640   0.902950  -0.157255   0.351148  -4.724310   0.059144  -3.844990  -0.651526   0.000000   0.000000   0.000000
 -0.792738  89.512500  -1.239080  -2.308620  -5.846410  -1.903490   0.534471   2.460950   0.296323   1.057650   4.924540   0.570420   0.340377   0.104517   0.006484   0.559304   0.216499  -0.380879  -0.887275  -0.124585   1.449780 -77.606000  12.075800   0.835438  -1.093610  -2.456390 -14.518200  13.588600  -4.902990   2.440780  49.011000  44.807400 -79.248800 -30.404400  -0.001328  -0.000730 -10.210700   0.000831   0.006188 -29.367700   3.911080  -6.911070 -24.221500   0.000710   0.003170 -16.955000   0.000631  -0.008665 -28.595100  -0.958707   1.758250 -37.512600  -0.006336   0.011785 -24.983400   0.001119  -0.014567 -28.307400  -0.949845   1.763050 -34.381200   0.006022  -0.002358 -22.897900  -0.010969   0.001593 -32.189800  -1.067240   1.694580 -48.314200   0.005688  -0.001278 -32.173100   0.001603   0.000715   4.418860  -0.111768   1.263740  74.186900   2.754220  -4.128830   0.479059  -7.556740   6.074670 -12.327300  -0.899964   3.310300 -38.047600  30.162100  62.148100  30.660700   0.001531  -0.000802  10.330400   0.001757   0.000431  32.872200   8.906130  13.472100  27.757800   0.002709  -0.000283  19.430500   0.004713   0.011882  28.422300   4.882100   8.938470  42.879700  -0.002134  -0.003229  28.557900   0.004357   0.002840  28.457300   4.125990   7.559880  39.637600   0.006774  -0.001176  26.398600   0.002326  -0.000614  37.421600  -0.345174  -0.470891  56.134500   0.005038   0.002642  37.385600   0.003744  -0.002051   1.181230   9.003050   2.794290   0.730789   0.030487   1.366550  -0.132276  -4.250660   1.386960   0.000000   0.000000   0.000000   1.731850   8.752060   0.891417  -0.146586   0.328488  -4.713680   0.046597  -3.837600  -0.651407  -0.000000   0.000000   0.000000
 -0.801580  89.512500  -1.225670  -2.306220  -5.830720  -1.897290   0.534300   2.462500   0.302156   1.056990   4.927710   0.582098   0.356384   0.104578   0.006478   0.585590   0.218031  -0.405054  -0.887416  -0.122962   1.431820 -77.616600  12.094300   0.820094  -1.096760  -2.448640 -14.539700  13.604200  -4.896280   2.443850  49.001100  44.796300 -79.215300 -30.412600  -0.001329  -0.000747 -10.210700   0.000839   0.006201 -29.358900   3.900830  -6.894770 -24.213400   0.000716   0.003168 -16.949100   0.000630  -0.008666 -28.594600  -0.966748   1.770970 -37.504200  -0.006335   0.011787 -24.978100   0.001123  -0.014567 -28.306900  -0.957836   1.775800 -34.382800   0.006026  -0.002359 -22.902000  -0.010974   0.001592 -32.193700  -1.076310   1.706780 -48.318100   0.005691  -0.001275 -32.177500   0.001604   0.000715   4.424480  -0.113715   1.248010  74.175500   2.770670  -4.115260   0.485927  -7.589550   6.087920 -12.299200  -0.880934   3.317520 -38.056200  30.167100  62.150800  30.652500   0.001444  -0.000761  10.326400   0.001719   0.000409  32.858700   8.907340  13.480600  27.747400   0.002679  -0.000414  19.423200   0.004634   0.011940  28.421500   4.885600   8.941670  42.852900  -0.002141  -0.003240  28.540000   0.004346   0.002846  28.457000   4.126010   7.563530  39.614200   0.006752  -0.001220  26.383000   0.002309  -0.000603  37.409000  -0.345135  -0.466786  56.115500   0.005050   0.002621  37.373000   0.003687  -0.002043   1.192710   8.999050   2.773610   0.727411   0.033741   1.369410  -0.144540  -4.261880   1.390610   0.000000   0.000000   0.000000   1.726030   8.749150   0.882525  -0.134015   0.316766  -4.711710   0.037287  -3.837440  -0.651674  -0.000000   0.000000  -0.000000
